<svg xmlns="http://www.w3.org/2000/svg" viewBox="0 0 24 24">
  <rect width="24" height="24" rx="3" fill="#24292e"/>
  <path fill="#fff" d="M12 4C7.6 4 4 7.6 4 12c0 3.5 2.3 6.5 5.5 7.6.4.1.5-.2.5-.4v-1.4c-2.2.5-2.7-1-2.7-1-.4-.9-.9-1.2-.9-1.2-.7-.5.1-.5.1-.5.8.1 1.2.8 1.2.8.7 1.2 1.9.9 2.4.7.1-.5.3-.9.5-1.1-1.8-.2-3.7-.9-3.7-4 0-.9.3-1.6.8-2.1-.1-.2-.4-1 .1-2.1 0 0 .7-.2 2.2.8a7.4 7.4 0 0 1 4 0c1.5-1 2.2-.8 2.2-.8.5 1.1.2 1.9.1 2.1.5.5.8 1.2.8 2.1 0 3.1-1.9 3.8-3.7 4 .3.3.6.8.6 1.6v2.4c0 .2.1.5.6.4A8 8 0 0 0 20 12c0-4.4-3.6-8-8-8Z"/>
</svg>
